<svg xmlns="http://www.w3.org/2000/svg" viewBox="0 0 400 240" role="img" aria-label="Containers">
  <rect width="400" height="240" fill="#052e16"/>
  <rect x="58" y="58" width="96" height="96" rx="10" fill="#14532d" stroke="#4ade80" stroke-width="3"/>
  <rect x="72" y="72" width="68" height="20" rx="4" fill="#22c55e"/>
  <rect x="72" y="100" width="68" height="20" rx="4" fill="#16a34a"/>
  <rect x="72" y="128" width="68" height="12" rx="3" fill="#86efac"/>
  <rect x="152" y="58" width="96" height="96" rx="10" fill="#14532d" stroke="#4ade80" stroke-width="3"/>
  <rect x="166" y="72" width="68" height="20" rx="4" fill="#22c55e"/>
  <rect x="166" y="100" width="68" height="20" rx="4" fill="#16a34a"/>
  <rect x="166" y="128" width="68" height="12" rx="3" fill="#86efac"/>
  <rect x="246" y="58" width="96" height="96" rx="10" fill="#14532d" stroke="#4ade80" stroke-width="3"/>
  <rect x="260" y="72" width="68" height="20" rx="4" fill="#22c55e"/>
  <rect x="260" y="100" width="68" height="20" rx="4" fill="#16a34a"/>
  <rect x="260" y="128" width="68" height="12" rx="3" fill="#86efac"/>
  <text x="200" y="200" text-anchor="middle" fill="#bbf7d0" font-family="Segoe UI,sans-serif" font-size="16" font-weight="700">Immutable ECR Images</text>
  <text x="200" y="222" text-anchor="middle" fill="#86efac" font-family="Segoe UI,sans-serif" font-size="12">demo-app:1.0.0-&lt;git-sha&gt;</text>
</svg>
